<svg width="32" height="32" viewBox="0 0 32 32" fill="none" xmlns="http://www.w3.org/2000/svg">
  <defs>
    <!-- Gradient for the shampoo bottle -->
    <linearGradient id="bottleGradient" x1="0%" y1="0%" x2="100%" y2="100%">
      <stop offset="0%" style="stop-color:#059669;stop-opacity:1" />
      <stop offset="50%" style="stop-color:#10b981;stop-opacity:1" />
      <stop offset="100%" style="stop-color:#047857;stop-opacity:1" />
    </linearGradient>
    
    <!-- Gradient for the cap -->
    <linearGradient id="capGradient" x1="0%" y1="0%" x2="100%" y2="100%">
      <stop offset="0%" style="stop-color:#374151;stop-opacity:1" />
      <stop offset="100%" style="stop-color:#1f2937;stop-opacity:1" />
    </linearGradient>
  </defs>
  
  <!-- Background circle -->
  <circle cx="16" cy="16" r="15" fill="url(#bottleGradient)" stroke="#047857" stroke-width="1"/>
  
  <!-- Shampoo Bottle Icon -->
  <g transform="translate(16, 16)">
    <!-- Bottle Body -->
    <path d="M-3 0 L-3 8 Q-3 9 -2 9 L2 9 Q3 9 3 8 L3 0 Z" 
          fill="white" 
          opacity="0.9"/>
    
    <!-- Bottle Neck -->
    <rect x="-1.5" y="-4" width="3" height="4" 
          fill="white" 
          opacity="0.9"/>
    
    <!-- Bottle Cap -->
    <ellipse cx="0" cy="-6" rx="2.5" ry="1.5" 
             fill="url(#capGradient)"/>
    
    <!-- Bottle Highlight -->
    <path d="M-2 1 L-2 7 Q-2 7.5 -1.5 7.5 L-1 7.5 Q-0.5 7.5 -0.5 7 L-0.5 1" 
          fill="rgba(255,255,255,0.4)"/>
    
    <!-- Label on bottle -->
    <rect x="-2" y="2" width="4" height="4" 
          fill="rgba(255,255,255,0.8)" 
          rx="0.5"/>
    
    <!-- Small N on label -->
    <text x="0" y="5" text-anchor="middle" font-family="Arial, sans-serif" font-size="3" fill="#059669" font-weight="bold">N</text>
  </g>
</svg>