<svg width="32" height="32" viewBox="0 0 32 32" fill="none" xmlns="http://www.w3.org/2000/svg">
  <defs>
    <!-- Gradient for the shampoo bottle -->
    <linearGradient id="bottleGradient" x1="0%" y1="0%" x2="100%" y2="100%">
      <stop offset="0%" style="stop-color:#059669;stop-opacity:1" />
      <stop offset="50%" style="stop-color:#10b981;stop-opacity:1" />
      <stop offset="100%" style="stop-color:#047857;stop-opacity:1" />
    </linearGradient>
    
    <!-- Gradient for the cap -->
    <linearGradient id="capGradient" x1="0%" y1="0%" x2="100%" y2="100%">
      <stop offset="0%" style="stop-color:#374151;stop-opacity:1" />
      <stop offset="100%" style="stop-color:#1f2937;stop-opacity:1" />
    </linearGradient>
    
    <!-- Shine gradient -->
    <linearGradient id="shineGradient" x1="0%" y1="0%" x2="100%" y2="100%">
      <stop offset="0%" style="stop-color:rgba(255,255,255,0.7);stop-opacity:1" />
      <stop offset="100%" style="stop-color:rgba(255,255,255,0.2);stop-opacity:1" />
    </linearGradient>
  </defs>
  
  <!-- Large Shampoo Bottle Icon - Centered and Prominent -->
  <g transform="translate(16, 16)">
    <!-- Main Bottle Body - Very Large -->
    <path d="M-8 -4 L-8 12 Q-8 15 -5 15 L5 15 Q8 15 8 12 L8 -4 Z" 
          fill="url(#bottleGradient)" 
          stroke="#047857"
          stroke-width="1"/>
    
    <!-- Bottle Neck - Proportionally sized -->
    <rect x="-4" y="-10" width="8" height="7" 
          fill="url(#bottleGradient)" 
          stroke="#047857"
          stroke-width="0.8"/>
    
    <!-- Bottle Cap - Large and prominent -->
    <ellipse cx="0" cy="-14" rx="6" ry="3" 
             fill="url(#capGradient)"
             stroke="#1f2937"
             stroke-width="1"/>
    
    <!-- Cap Top Detail -->
    <ellipse cx="0" cy="-15" rx="4" ry="2" 
             fill="#4b5563"/>
    
    <!-- Bottle Highlight - More prominent -->
    <path d="M-6 -2 L-6 10 Q-6 13 -4 13 L-2 13 Q0 13 0 10 L0 -2" 
          fill="url(#shineGradient)"/>
    
    <!-- Label on bottle - Large and visible -->
    <rect x="-5" y="2" width="10" height="8" 
          fill="rgba(255,255,255,0.95)" 
          stroke="#059669" 
          stroke-width="0.6" 
          rx="1"/>
    
    <!-- Brand initial on label - Large -->
    <text x="0" y="8" text-anchor="middle" font-family="Arial, sans-serif" font-size="7" fill="#059669" font-weight="bold">N</text>
    
    <!-- Additional bottle details for realism -->
    <circle cx="-3" cy="4" r="0.5" fill="#10b981" opacity="0.7"/>
    <circle cx="3" cy="7" r="0.5" fill="#10b981" opacity="0.7"/>
    
    <!-- Pump/dispenser detail on cap -->
    <rect x="-1" y="-17" width="2" height="2.5" 
          fill="#6b7280" 
          rx="0.3"/>
    
    <!-- Small dispenser top -->
    <ellipse cx="0" cy="-18" rx="1.2" ry="0.8" 
             fill="#9ca3af"/>
  </g>
</svg>